<svg width="301" height="295" viewBox="0 0 301 295" fill="none" xmlns="http://www.w3.org/2000/svg">
<path d="M251 147C251 170.136 242.978 192.556 228.301 210.44C213.624 228.324 193.2 240.565 170.509 245.079C147.818 249.592 124.264 246.098 103.86 235.192C83.4566 224.286 67.4656 206.643 58.6121 185.269C49.7585 163.894 48.5901 140.111 55.306 117.972C62.0219 95.8325 76.2065 76.7068 95.443 63.8534C114.679 51 137.778 45.2142 160.802 47.4818C183.826 49.7495 205.351 59.9303 221.711 76.2896L151 147H251Z" fill="#C8911A"/>
<path d="M301 147.5C301 112.508 288.307 78.6558 265.188 51.9903C242.069 25.3248 210.03 7.58321 174.794 1.93472C139.559 -3.71378 103.422 3.09881 72.8386 21.1555C42.2557 39.2122 19.2188 67.3368 7.8432 100.505C-3.53239 133.674 -2.5057 169.726 10.7399 202.221C23.9854 234.716 48.5871 261.537 80.1501 277.894C111.713 294.251 148.181 299.077 183.041 291.511C217.9 283.945 248.879 264.48 270.445 236.592L239.711 213.764C223.671 234.506 200.63 248.983 174.703 254.611C148.776 260.238 121.652 256.648 98.1762 244.483C74.7007 232.317 56.4028 212.368 46.5513 188.199C36.6997 164.031 35.9361 137.217 44.3968 112.547C52.8576 87.8775 69.9916 66.9594 92.7382 53.5294C115.485 40.0995 142.362 35.0325 168.569 39.2337C194.776 43.4348 218.606 56.6304 235.801 76.4633C252.996 96.2962 262.437 121.474 262.437 147.5H301Z" fill="#C8911A"/>
</svg>
