<svg width="72" height="72" viewBox="0 0 72 72" fill="none" xmlns="http://www.w3.org/2000/svg">
<path d="M49.5 28.1999L22.5 12.63M9.81 20.88L36 36.03L62.19 20.88M36 66.24V36M63 48V24C62.9989 22.9478 62.7212 21.9144 62.1946 21.0034C61.6681 20.0925 60.9112 19.336 60 18.81L39 6.80995C38.0879 6.28334 37.0532 6.0061 36 6.0061C34.9468 6.0061 33.9121 6.28334 33 6.80995L12 18.81C11.0888 19.336 10.3319 20.0925 9.80538 21.0034C9.27883 21.9144 9.00108 22.9478 9 24V48C9.00108 49.0521 9.27883 50.0855 9.80538 50.9965C10.3319 51.9074 11.0888 52.6639 12 53.19L33 65.19C33.9121 65.7166 34.9468 65.9938 36 65.9938C37.0532 65.9938 38.0879 65.7166 39 65.19L60 53.19C60.9112 52.6639 61.6681 51.9074 62.1946 50.9965C62.7212 50.0855 62.9989 49.0521 63 48Z" stroke="white" stroke-width="4" stroke-linecap="round" stroke-linejoin="round"/>
</svg>
