<svg width="56" height="56" viewBox="0 0 56 56" fill="none" xmlns="http://www.w3.org/2000/svg">
<path d="M2.33337 2.33325H11.6667L17.92 33.5766C18.1334 34.6508 18.7178 35.6158 19.571 36.3026C20.4241 36.9894 21.4917 37.3542 22.5867 37.3333H45.2667C46.3617 37.3542 47.4293 36.9894 48.2824 36.3026C49.1356 35.6158 49.72 34.6508 49.9334 33.5766L53.6667 13.9999H14M23.3334 48.9999C23.3334 50.2886 22.2887 51.3333 21 51.3333C19.7114 51.3333 18.6667 50.2886 18.6667 48.9999C18.6667 47.7113 19.7114 46.6666 21 46.6666C22.2887 46.6666 23.3334 47.7113 23.3334 48.9999ZM49 48.9999C49 50.2886 47.9554 51.3333 46.6667 51.3333C45.378 51.3333 44.3334 50.2886 44.3334 48.9999C44.3334 47.7113 45.378 46.6666 46.6667 46.6666C47.9554 46.6666 49 47.7113 49 48.9999Z" stroke="#1E1E1E" stroke-width="4" stroke-linecap="round" stroke-linejoin="round"/>
</svg>
